<svg width="21" height="20" viewBox="0 0 21 20" fill="none" xmlns="http://www.w3.org/2000/svg">
<path d="M1.75 18.125C1.75 19.1602 2.58984 20 3.625 20H17.375C18.4102 20 19.25 19.1602 19.25 18.125V7.5H1.75V18.125ZM14.25 10.4688C14.25 10.2109 14.4609 10 14.7188 10H16.2812C16.5391 10 16.75 10.2109 16.75 10.4688V12.0312C16.75 12.2891 16.5391 12.5 16.2812 12.5H14.7188C14.4609 12.5 14.25 12.2891 14.25 12.0312V10.4688ZM14.25 15.4688C14.25 15.2109 14.4609 15 14.7188 15H16.2812C16.5391 15 16.75 15.2109 16.75 15.4688V17.0312C16.75 17.2891 16.5391 17.5 16.2812 17.5H14.7188C14.4609 17.5 14.25 17.2891 14.25 17.0312V15.4688ZM9.25 10.4688C9.25 10.2109 9.46094 10 9.71875 10H11.2812C11.5391 10 11.75 10.2109 11.75 10.4688V12.0312C11.75 12.2891 11.5391 12.5 11.2812 12.5H9.71875C9.46094 12.5 9.25 12.2891 9.25 12.0312V10.4688ZM9.25 15.4688C9.25 15.2109 9.46094 15 9.71875 15H11.2812C11.5391 15 11.75 15.2109 11.75 15.4688V17.0312C11.75 17.2891 11.5391 17.5 11.2812 17.5H9.71875C9.46094 17.5 9.25 17.2891 9.25 17.0312V15.4688ZM4.25 10.4688C4.25 10.2109 4.46094 10 4.71875 10H6.28125C6.53906 10 6.75 10.2109 6.75 10.4688V12.0312C6.75 12.2891 6.53906 12.5 6.28125 12.5H4.71875C4.46094 12.5 4.25 12.2891 4.25 12.0312V10.4688ZM4.25 15.4688C4.25 15.2109 4.46094 15 4.71875 15H6.28125C6.53906 15 6.75 15.2109 6.75 15.4688V17.0312C6.75 17.2891 6.53906 17.5 6.28125 17.5H4.71875C4.46094 17.5 4.25 17.2891 4.25 17.0312V15.4688ZM17.375 2.5H15.5V0.625C15.5 0.28125 15.2188 0 14.875 0H13.625C13.2812 0 13 0.28125 13 0.625V2.5H8V0.625C8 0.28125 7.71875 0 7.375 0H6.125C5.78125 0 5.5 0.28125 5.5 0.625V2.5H3.625C2.58984 2.5 1.75 3.33984 1.75 4.375V6.25H19.25V4.375C19.25 3.33984 18.4102 2.5 17.375 2.5Z" fill="#FFE9E2"/>
</svg>
